<svg xmlns="http://www.w3.org/2000/svg" viewBox="0 0 476.43 383.66"><defs><style>.cls-1,.cls-2{fill:#fff;}.cls-1{opacity:0.2;isolation:isolate;}</style></defs><g id="Layer_2" data-name="Layer 2"><g id="Layer_1-2" data-name="Layer 1"><path class="cls-1" d="M105.62,118.57A105.62,105.62,0,1,0,211.24,224.19,105.62,105.62,0,0,0,105.62,118.57Zm0,172.42a66.8,66.8,0,1,1,66.8-66.8A66.8,66.8,0,0,1,105.62,291Z"/><path class="cls-1" d="M249.44,172.42A105.62,105.62,0,1,0,355.06,278,105.62,105.62,0,0,0,249.44,172.42Zm0,172.42a66.8,66.8,0,1,1,66.8-66.8A66.8,66.8,0,0,1,249.44,344.84Z"/><path class="cls-1" d="M370.8,118.57A105.62,105.62,0,1,0,476.42,224.19,105.62,105.62,0,0,0,370.8,118.57Zm0,172.42a66.8,66.8,0,1,1,66.8-66.8A66.8,66.8,0,0,1,370.8,291Z"/><path class="cls-1" d="M249.44,0A105.62,105.62,0,1,0,355.06,105.62,105.62,105.62,0,0,0,249.44,0Zm0,172.42a66.8,66.8,0,1,1,66.8-66.8A66.8,66.8,0,0,1,249.44,172.42Z"/><path class="cls-2" d="M371.38,118.58H351.46v1.8h0v39.89h0V265.08h38.7V160.27a66.69,66.69,0,0,1,33.4,104.81h44.66a105.67,105.67,0,0,0-96.84-146.5Z"/><path class="cls-2" d="M310.45,191.83a105.6,105.6,0,0,0,43.79-73.25H315a66.89,66.89,0,0,1-46.17,51v-51h-38.7V265.09h38.7v-51a66.89,66.89,0,0,1,46.17,51h39.28A105.56,105.56,0,0,0,310.45,191.83Z"/><path class="cls-2" d="M172.54,118.57v23.91a105.09,105.09,0,0,0-59.47-23.64h0l-1,0c-1.06-.06-2.12-.12-3.19-.15s-2.19-.06-3.3-.06a106.32,106.32,0,0,0-19.35,1.77v0h0v39.89h0V265.09H125V160.24a66.73,66.73,0,0,1,33.4,104.84h52.87V118.57Z"/></g></g></svg>